<svg width="54" height="59" viewBox="0 0 54 59" fill="none" xmlns="http://www.w3.org/2000/svg">
<path fill-rule="evenodd" clip-rule="evenodd" d="M49.5 17.75H4.5V51.5C4.5 52.4946 4.89509 53.4484 5.59835 54.1516C6.30161 54.8549 7.25544 55.25 8.25 55.25H45.75C46.7446 55.25 47.6984 54.8549 48.4016 54.1516C49.1049 53.4484 49.5 52.4946 49.5 51.5V17.75ZM0.75 14V51.5C0.75 53.4891 1.54018 55.3968 2.9467 56.8033C4.35322 58.2098 6.26088 59 8.25 59H45.75C47.7391 59 49.6468 58.2098 51.0533 56.8033C52.4598 55.3968 53.25 53.4891 53.25 51.5V14H0.75Z" fill="black"/>
<path d="M27 4.625C24.5136 4.625 22.129 5.61272 20.3709 7.37087C18.6127 9.12903 17.625 11.5136 17.625 14H13.875C13.875 10.519 15.2578 7.18064 17.7192 4.71922C20.1806 2.25781 23.519 0.875 27 0.875C30.481 0.875 33.8194 2.25781 36.2808 4.71922C38.7422 7.18064 40.125 10.519 40.125 14H36.375C36.375 11.5136 35.3873 9.12903 33.6291 7.37087C31.871 5.61272 29.4864 4.625 27 4.625V4.625Z" fill="black"/>
</svg>
