<svg width="33" height="30" viewBox="0 0 33 30" fill="none" xmlns="http://www.w3.org/2000/svg">
<path d="M29.9072 2.56281C29.0943 1.74991 28.1292 1.10516 27.067 0.665423C26.0048 0.225684 24.8664 -0.000431076 23.7168 6.16966e-07C22.5672 0.00043231 21.4289 0.227402 20.367 0.667939C19.3052 1.10848 18.3405 1.75394 17.5282 2.56745L16.4679 3.6407L15.4164 2.56978L15.4096 2.56294C14.5971 1.75042 13.6325 1.1059 12.5709 0.666164C11.5093 0.226432 10.3714 0.000104143 9.22237 0.000104143C8.0733 0.000104143 6.93548 0.226432 5.87388 0.666164C4.81228 1.1059 3.84768 1.75042 3.03517 2.56294L2.5628 3.03531C0.921868 4.67625 0 6.90184 0 9.22248C0 11.5431 0.921868 13.7687 2.5628 15.4097L15.0297 27.8764L16.4376 29.3515L16.4711 29.3178L16.5076 29.3543L17.8266 27.9626L30.3796 15.4094C32.0181 13.7672 32.9383 11.5421 32.9383 9.22227C32.9383 6.90245 32.0181 4.67735 30.3796 3.0351L29.9072 2.56281ZM28.8325 13.8627L16.4711 26.2243L4.1095 13.8627C2.87881 12.632 2.18741 10.9628 2.18741 9.22231C2.18741 7.48183 2.87881 5.81264 4.1095 4.58194L4.58194 4.10957C5.81204 2.87948 7.48022 2.18813 9.21984 2.18748C10.9595 2.18682 12.6282 2.87692 13.8592 4.10609L16.4632 6.75754L19.0796 4.10957C19.689 3.50018 20.4124 3.01679 21.2086 2.68699C22.0048 2.35719 22.8582 2.18744 23.72 2.18744C24.5818 2.18744 25.4352 2.35719 26.2314 2.68699C27.0276 3.01679 27.751 3.50018 28.3604 4.10957L28.8328 4.58187C30.0616 5.81359 30.7517 7.48245 30.7517 9.22233C30.7516 10.9622 30.0614 12.631 28.8325 13.8627Z" fill="black"/>
</svg>
