<svg width="245" height="96" viewBox="0 0 245 96" fill="none" xmlns="http://www.w3.org/2000/svg">
<path d="M42.8 73L47.4 38.8H14L9.4 73H0.4L9.3 7.1V0.599996H19.2L15 32H48.4L52.6 0.599996H61.6L51.8 73H42.8ZM60.0875 89.4C64.3542 89.2 67.8208 87.7333 70.4875 85C73.2208 82.2667 75.7542 78.1667 78.0875 72.7L67.6875 24H76.1875C77.3875 30.2 78.5875 36.5 79.7875 42.9C81.0542 49.3 82.2208 55.7333 83.2875 62.2C86.1542 55.5333 89.0542 49.0667 91.9875 42.8C94.9208 36.4667 97.8208 30.2 100.688 24H108.288L83.4875 78.1C81.1542 83.1667 77.9875 87.3667 73.9875 90.7C69.9875 94.1 65.0542 95.8667 59.1875 96L60.0875 89.4ZM145.905 23.5H150.305L143.405 70.9C143.005 73.8333 142.339 76.7667 141.405 79.7C140.539 82.7 139.272 85.4333 137.605 87.9C135.939 90.3667 133.639 92.3333 130.705 93.8C127.839 95.2667 124.205 96 119.805 96C117.339 96 115.039 95.7 112.905 95.1C110.839 94.5 109.105 93.8333 107.705 93.1C106.305 92.3667 105.339 91.8333 104.805 91.5L108.905 84.5C110.305 85.9667 111.939 87.1667 113.805 88.1C115.739 89.0333 117.439 89.5 118.905 89.5C122.572 89.5 125.505 88.8 127.705 87.4C129.905 86 131.572 84.1 132.705 81.7C133.839 79.3 134.605 76.6333 135.005 73.7L135.905 67.8H135.505C134.372 69.4667 132.639 70.9667 130.305 72.3C128.039 73.6333 125.539 74.3 122.805 74.3C119.205 74.3 116.272 73.3667 114.005 71.5C111.805 69.6333 110.172 67.1333 109.105 64C108.105 60.8667 107.605 57.4333 107.605 53.7C107.605 49.9667 108.105 46.2667 109.105 42.6C110.172 38.9333 111.739 35.6 113.805 32.6C115.872 29.6 118.472 27.2 121.605 25.4C124.739 23.6 128.439 22.7 132.705 22.7C134.572 22.7 136.439 23.0333 138.305 23.7C140.239 24.3 142.039 25.4333 143.705 27.1L145.905 23.5ZM115.905 53.6C115.905 57.4667 116.572 60.8333 117.905 63.7C119.239 66.5 121.405 67.9 124.405 67.9C127.339 67.9 129.839 66.6667 131.905 64.2C133.972 61.7333 135.639 58.5667 136.905 54.7C138.239 50.7667 139.172 46.6333 139.705 42.3L141.205 31.4C138.539 29.7333 135.772 28.9 132.905 28.9C129.839 28.9 127.205 29.6333 125.005 31.1C122.872 32.5667 121.105 34.5333 119.705 37C118.372 39.4 117.405 42.0667 116.805 45C116.205 47.8667 115.905 50.7333 115.905 53.6ZM194.538 23.5H198.938L192.038 70.9C191.638 73.8333 190.972 76.7667 190.038 79.7C189.172 82.7 187.905 85.4333 186.238 87.9C184.572 90.3667 182.272 92.3333 179.338 93.8C176.472 95.2667 172.838 96 168.438 96C165.972 96 163.672 95.7 161.538 95.1C159.472 94.5 157.738 93.8333 156.338 93.1C154.938 92.3667 153.972 91.8333 153.438 91.5L157.538 84.5C158.938 85.9667 160.572 87.1667 162.438 88.1C164.372 89.0333 166.072 89.5 167.538 89.5C171.205 89.5 174.138 88.8 176.338 87.4C178.538 86 180.205 84.1 181.338 81.7C182.472 79.3 183.238 76.6333 183.638 73.7L184.538 67.8H184.138C183.005 69.4667 181.272 70.9667 178.938 72.3C176.672 73.6333 174.172 74.3 171.438 74.3C167.838 74.3 164.905 73.3667 162.638 71.5C160.438 69.6333 158.805 67.1333 157.738 64C156.738 60.8667 156.238 57.4333 156.238 53.7C156.238 49.9667 156.738 46.2667 157.738 42.6C158.805 38.9333 160.372 35.6 162.438 32.6C164.505 29.6 167.105 27.2 170.238 25.4C173.372 23.6 177.072 22.7 181.338 22.7C183.205 22.7 185.072 23.0333 186.938 23.7C188.872 24.3 190.672 25.4333 192.338 27.1L194.538 23.5ZM164.538 53.6C164.538 57.4667 165.205 60.8333 166.538 63.7C167.872 66.5 170.038 67.9 173.038 67.9C175.972 67.9 178.472 66.6667 180.538 64.2C182.605 61.7333 184.272 58.5667 185.538 54.7C186.872 50.7667 187.805 46.6333 188.338 42.3L189.838 31.4C187.172 29.7333 184.405 28.9 181.538 28.9C178.472 28.9 175.838 29.6333 173.638 31.1C171.505 32.5667 169.738 34.5333 168.338 37C167.005 39.4 166.038 42.0667 165.438 45C164.838 47.8667 164.538 50.7333 164.538 53.6ZM230.571 22.7C232.904 22.7 235.104 23.0667 237.171 23.8C239.238 24.4667 240.904 25.6 242.171 27.2C243.504 28.7333 244.171 30.7667 244.171 33.3C244.171 37.4333 242.804 40.9667 240.071 43.9C237.404 46.8333 233.738 49.0667 229.071 50.6C224.404 52.1333 219.138 52.8667 213.271 52.8C213.471 57.8 214.704 61.4667 216.971 63.8C219.304 66.1333 222.338 67.3 226.071 67.3C230.004 67.3 234.471 66.1333 239.471 63.8L242.071 68.7C239.671 70.3667 236.904 71.7333 233.771 72.8C230.704 73.8 227.704 74.3 224.771 74.3C220.104 74.3 216.304 73.3 213.371 71.3C210.438 69.3 208.304 66.6333 206.971 63.3C205.638 59.9667 204.971 56.3 204.971 52.3C204.971 48.7667 205.504 45.2667 206.571 41.8C207.638 38.2667 209.238 35.0667 211.371 32.2C213.571 29.3333 216.271 27.0333 219.471 25.3C222.671 23.5667 226.371 22.7 230.571 22.7ZM229.571 28.9C226.504 28.9 223.871 29.7667 221.671 31.5C219.471 33.2333 217.671 35.5 216.271 38.3C214.938 41.0333 214.038 43.9333 213.571 47C216.171 47.1333 218.771 46.9333 221.371 46.4C224.038 45.8 226.438 44.9 228.571 43.7C230.771 42.5 232.504 41.1 233.771 39.5C235.104 37.8333 235.771 36 235.771 34C235.771 32.2667 235.138 31 233.871 30.2C232.671 29.3333 231.238 28.9 229.571 28.9Z" fill="black"/>
</svg>
