<svg width="60" height="60" viewBox="0 0 60 60" fill="none" xmlns="http://www.w3.org/2000/svg">
<path fill-rule="evenodd" clip-rule="evenodd" d="M45.4603 40.9744C49.4181 35.8699 51.2833 29.4488 50.6766 23.0173C50.0699 16.5859 47.0367 10.6272 42.1943 6.35357C37.3518 2.07993 31.0638 -0.187639 24.6094 0.0121658C18.155 0.211971 12.0191 2.86414 7.45006 7.42913C2.87701 11.9973 0.217226 18.138 0.0127277 24.5998C-0.191771 31.0617 2.07441 37.3584 6.34946 42.2068C10.6245 47.0552 16.5867 50.0903 23.021 50.6938C29.4553 51.2972 35.8775 49.4235 40.9788 45.4545L41.1153 45.5974L54.5788 59.0695C54.8737 59.3645 55.2238 59.5985 55.6091 59.7582C55.9944 59.9178 56.4073 60 56.8244 60C57.2414 60 57.6543 59.9178 58.0396 59.7582C58.4249 59.5985 58.775 59.3645 59.0699 59.0695C59.3648 58.7745 59.5987 58.4243 59.7583 58.0388C59.9179 57.6534 60 57.2403 60 56.8231C60 56.4059 59.9179 55.9928 59.7583 55.6074C59.5987 55.2219 59.3648 54.8717 59.0699 54.5767L45.6031 41.1078C45.5568 41.062 45.5091 41.0175 45.4603 40.9744V40.9744ZM38.8714 11.9219C40.6633 13.6857 42.0885 15.7869 43.0647 18.1044C44.0409 20.4218 44.5487 22.9098 44.5589 25.4246C44.5692 27.9394 44.0816 30.4314 43.1243 32.7567C42.1671 35.0821 40.759 37.1948 38.9815 38.9731C37.2039 40.7514 35.092 42.16 32.7676 43.1176C30.4431 44.0753 27.9522 44.563 25.4383 44.5528C22.9245 44.5426 20.4376 44.0345 18.121 43.0579C15.8045 42.0814 13.7041 40.6556 11.9411 38.863C8.41784 35.2804 6.45237 30.4503 6.47283 25.4246C6.49329 20.3989 8.498 15.5849 12.0503 12.0312C15.6026 8.47748 20.4147 6.47197 25.4383 6.45151C30.462 6.43104 35.2903 8.39729 38.8714 11.9219Z" fill="black"/>
</svg>
